<?xml version="1.0" encoding="utf-8"?>
<!-- Generator: Adobe Illustrator 21.0.0, SVG Export Plug-In . SVG Version: 6.00 Build 0)  -->
<svg version="1.1" id="all" xmlns="http://www.w3.org/2000/svg" xmlns:xlink="http://www.w3.org/1999/xlink" x="0px" y="0px"
	 viewBox="0 0 632.8 123.3" enable-background="new 0 0 632.8 123.3" xml:space="preserve">
<line id="line4" fill="none" stroke="#45B29A" stroke-width="5" stroke-miterlimit="10" x1="0" y1="120.1" x2="633.5" y2="120.1"/>
<line id="line3" fill="none" stroke="#45B29A" stroke-width="5" stroke-miterlimit="10" x1="0" y1="111.4" x2="633.4" y2="111.4"/>
<line id="line2" fill="none" stroke="#45B29A" stroke-width="5" stroke-miterlimit="10" x1="0" y1="13.3" x2="633.7" y2="13.3"/>
<line id="line1" fill="none" stroke="#45B29A" stroke-width="5" stroke-miterlimit="10" x1="0" y1="4.7" x2="633" y2="4.7"/>
<g id="contact">
	<path fill="#45B29A" d="M58.2,25.5v8.3l-28.8,18l28.8,19.7v22.1L7,58.4v-1.1L58.2,25.5z"/>
	<path fill="#45B29A" d="M95.6,20.5v7.1c-2.3,0.4-4.1,1.4-5.2,3.1c-1.1,1.7-1.7,4.1-1.7,7.3v48.8v2.5c0,0.9,0.2,1.9,0.6,2.9
		c0.4,1,0.9,1.9,1.4,2.6c0.6,0.8,1.3,1.3,2,1.7c0.7,0.3,1.7,0.6,2.9,0.7v7.2c-7.6,0-14.3-2-19.9-6c-5-3.5-8.7-8.2-11.2-14.2
		c-2.5-5.9-3.8-12.9-3.8-21.1c0-5.9,0.8-11.5,2.5-16.6c1.6-5.1,4-9.6,7.1-13.4c3.2-3.8,6.9-6.9,11.3-9.2c4.4-2.3,8.6-3.5,12.7-3.5
		L95.6,20.5z M100.2,27.7v-7.1c1.9,0.3,3.5,0.6,4.7,1c1.2,0.4,3.4,1.1,6.5,2.2c2,0.7,3.3,1.1,4,1.1c1.1,0,2-0.5,2.6-1.5l0.8-1.4
		c0.5-0.9,1.4-1.4,2.7-1.4c1.1,0,1.9,0.3,2.5,0.9c0.6,0.6,0.9,1.6,0.9,2.8v24.6c0,1.6-0.4,2.7-1.1,3.4s-1.5,1.1-2.4,1.1
		c-0.9,0-1.7-0.3-2.3-0.9c-0.6-0.6-1-1.6-1.4-3c-0.8-3.1-1.6-5.6-2.4-7.3c-1.7-3.7-3.6-6.8-5.8-9.1c-1.5-1.6-2.9-2.8-4.4-3.6
		C103.6,28.5,102,28,100.2,27.7z M100.4,104.4v-7.2c3.1-0.2,6.3-1.4,9.7-3.5c1.8-1.1,3.4-2.7,4.8-4.6c1.4-1.9,2.5-4,3.2-6.3
		c0.4-1.3,0.9-2.2,1.4-2.7c0.5-0.5,1.2-0.8,2.1-0.8c0.9,0,1.7,0.4,2.4,1.1c0.6,0.7,0.9,1.6,0.9,2.7c0,1.8-0.7,3.9-2,6.4
		c-1.4,2.5-3.1,4.8-5.2,7c-2.6,2.6-5.3,4.5-8,5.8C106.9,103.5,103.8,104.2,100.4,104.4z"/>
	<path fill="#45B29A" d="M164.9,26.9c-2,0.7-3.4,1.7-4.3,2.9c-0.8,1.2-1.2,3-1.2,5.4V88c0,3.5,0.5,5.9,1.4,7.3
		c0.7,1.2,2.1,2,4.1,2.5v6.5c-8.7-0.7-16.1-4-22-9.9c-7.7-7.6-11.5-18.3-11.5-32c0-6.9,1-13,3-18.6c2-5.5,5-10.2,9-14.1
		c3-3,6.3-5.2,9.8-6.7c3.5-1.5,7.4-2.4,11.6-2.6V26.9z M169.7,26.9v-6.4c4.3,0.2,8.1,1.1,11.7,2.6c3.5,1.5,6.8,3.8,9.8,6.7
		c8,7.8,12.1,18.7,12.1,32.7c0,13.7-3.8,24.3-11.5,32c-5.9,5.9-13.3,9.2-22,9.9v-6.5c1-0.2,1.8-0.5,2.4-0.9c0.6-0.4,1.1-0.9,1.6-1.6
		c1.1-1.6,1.6-4.1,1.6-7.3V35.2c0-2.1-0.4-3.7-1.1-5c-0.5-0.8-1-1.5-1.7-1.9C171.9,27.8,170.9,27.3,169.7,26.9z"/>
	<path fill="#45B29A" d="M219.2,42.9l6.3,10.4v31.7c0,2.8,0.5,5,1.4,6.8c0.9,1.8,2.4,3.2,4.4,4.4l1.8,1c1,0.6,1.5,1.5,1.5,2.7
		c0,0.9-0.4,1.7-1.1,2.2c-0.6,0.5-1.9,0.8-3.9,0.8h-13.6c-3.6,0-5.4-1-5.4-3.1c0-0.7,0.2-1.3,0.6-1.7c0.4-0.4,1.2-1,2.5-1.7
		c3.8-2.1,5.7-5.9,5.7-11.4V42.9z M244,22.1l31.4,54.6v26.1h-16.1l-40.1-69.1c-0.9-1.5-1.6-2.5-2.1-3.1c-0.6-0.6-1.3-1-2.1-1.3
		l-2.2-0.8c-0.6-0.2-1.1-0.6-1.4-1.1c-0.4-0.5-0.5-1.1-0.5-1.7c0-0.7,0.2-1.3,0.5-1.9c0.4-0.6,0.8-1,1.4-1.2
		c0.7-0.3,2.5-0.4,5.4-0.4H244z M275.4,67.3l-6.3-10.6V40.3c0-3.3-0.5-5.8-1.4-7.6c-1-1.8-2.7-3.3-5.1-4.5c-0.8-0.4-1.4-0.8-1.7-1.3
		c-0.3-0.5-0.5-1-0.5-1.7c0-1.1,0.3-1.8,1-2.3c0.7-0.5,1.8-0.7,3.3-0.7h14.8c2,0,3.3,0.3,4,0.9c0.7,0.6,1,1.4,1,2.2
		c0,0.8-0.2,1.4-0.6,1.9c-0.4,0.4-1.3,1-2.7,1.7c-2.1,1.1-3.7,2.7-4.7,4.9c-0.8,1.6-1.1,3.8-1.1,6.6V67.3z"/>
	<path fill="#45B29A" d="M289.4,22.1h15.5v7.1c-1.9,1.1-3.3,2.4-4.3,4.1c-1.7,2.7-2.8,5.8-3.4,9.5l-0.6,3.6c-0.2,1.1-0.6,2-1.3,2.7
		c-0.7,0.7-1.5,1-2.5,1c-1,0-1.9-0.4-2.5-1.1c-0.7-0.7-1-1.6-1-2.8V22.1z M335.9,22.1v69.4c0,1.5,0.3,2.6,0.9,3.3
		c0.3,0.4,0.6,0.6,0.9,0.7c0.3,0.1,1.2,0.3,2.7,0.7c1.9,0.4,2.8,1.5,2.8,3.2c0,1-0.5,1.9-1.5,2.5c-0.7,0.5-2,0.7-3.8,0.7h-2h-26.4
		h-1.9c-1.7,0-3-0.3-3.9-0.8c-0.9-0.5-1.3-1.3-1.3-2.4c0-1.7,0.9-2.8,2.8-3.2c1.5-0.4,2.4-0.6,2.7-0.7c0.3-0.1,0.6-0.3,0.8-0.7
		c0.6-0.7,0.9-1.8,0.9-3.3V22.1H335.9z M356.4,22.1v24.2c0,1.1-0.3,2.1-1,2.8c-0.6,0.7-1.5,1.1-2.5,1.1c-1,0-1.8-0.3-2.5-1
		c-0.6-0.6-1.1-1.5-1.3-2.7l-0.6-3.6c-0.6-3.7-1.7-6.8-3.4-9.5c-1.1-1.7-2.5-3-4.3-4.1v-7.1H356.4z"/>
	<path fill="#45B29A" d="M383.2,37.1l3,12.2l-10.5,38.2c-0.3,1.1-0.5,2.1-0.5,3.1c0,2.5,1.2,4.3,3.5,5.3l2.1,0.9c1.3,0.6,2,1.6,2,3
		c0,2-1.4,3-4.3,3h-15c-1.5,0-2.6-0.3-3.5-0.9c-0.8-0.6-1.3-1.4-1.3-2.5c0-1.1,0.9-2.1,2.6-2.8c1.6-0.7,2.8-1.3,3.6-1.9
		c0.8-0.6,1.5-1.3,2.2-2.3c1.1-1.6,2-3.8,2.7-6.4L383.2,37.1z M387.3,22.1h23.8l16.4,69.4c0.3,1.2,0.7,2.3,1.1,3.3
		c0.4,0.7,1.1,1.4,2.4,1.8c1,0.4,1.7,0.9,2.1,1.3c0.4,0.4,0.6,1,0.6,1.8c0,2-1.5,3.1-4.6,3.1h-29.5c-1.2,0-2.1-0.3-2.8-0.9
		c-0.7-0.6-1.1-1.3-1.1-2.3c0-0.8,0.2-1.4,0.5-1.8s1-0.9,2.1-1.5c0.8-0.4,1.3-0.8,1.7-1.3s0.5-1.1,0.5-1.8c0-0.7-0.1-1.3-0.2-1.8
		l-1.9-8.6h-16.5l1.6-7h13.2l-10.9-48L387.3,22.1z"/>
	<path fill="#45B29A" d="M471,20.5v7.1c-2.3,0.4-4.1,1.4-5.2,3.1c-1.1,1.7-1.7,4.1-1.7,7.3v48.8v2.5c0,0.9,0.2,1.9,0.6,2.9
		c0.4,1,0.9,1.9,1.4,2.6c0.6,0.8,1.3,1.3,2,1.7c0.7,0.3,1.7,0.6,2.9,0.7v7.2c-7.6,0-14.3-2-19.9-6c-5-3.5-8.7-8.2-11.2-14.2
		c-2.5-5.9-3.8-12.9-3.8-21.1c0-5.9,0.8-11.5,2.5-16.6c1.6-5.1,4-9.6,7.1-13.4c3.2-3.8,6.9-6.9,11.3-9.2c4.4-2.3,8.6-3.5,12.7-3.5
		L471,20.5z M475.7,27.7v-7.1c1.9,0.3,3.5,0.6,4.7,1c1.2,0.4,3.4,1.1,6.5,2.2c2,0.7,3.3,1.1,4,1.1c1.1,0,2-0.5,2.6-1.5l0.8-1.4
		c0.5-0.9,1.4-1.4,2.7-1.4c1.1,0,1.9,0.3,2.5,0.9c0.6,0.6,0.9,1.6,0.9,2.8v24.6c0,1.6-0.4,2.7-1.1,3.4s-1.5,1.1-2.4,1.1
		c-0.9,0-1.7-0.3-2.3-0.9c-0.6-0.6-1-1.6-1.4-3c-0.8-3.1-1.6-5.6-2.4-7.3c-1.7-3.7-3.6-6.8-5.8-9.1c-1.5-1.6-2.9-2.8-4.4-3.6
		C479.1,28.5,477.5,28,475.7,27.7z M475.9,104.4v-7.2c3.1-0.2,6.3-1.4,9.7-3.5c1.8-1.1,3.4-2.7,4.8-4.6c1.4-1.9,2.5-4,3.2-6.3
		c0.4-1.3,0.9-2.2,1.4-2.7c0.5-0.5,1.2-0.8,2.1-0.8c0.9,0,1.7,0.4,2.4,1.1s0.9,1.6,0.9,2.7c0,1.8-0.7,3.9-2,6.4
		c-1.4,2.5-3.1,4.8-5.2,7c-2.6,2.6-5.3,4.5-8,5.8C482.4,103.5,479.3,104.2,475.9,104.4z"/>
	<path fill="#45B29A" d="M506.8,22.1h15.5v7.1c-1.9,1.1-3.3,2.4-4.3,4.1c-1.7,2.7-2.8,5.8-3.4,9.5l-0.6,3.6c-0.2,1.1-0.6,2-1.3,2.7
		c-0.7,0.7-1.5,1-2.5,1c-1,0-1.9-0.4-2.5-1.1c-0.7-0.7-1-1.6-1-2.8V22.1z M553.4,22.1v69.4c0,1.5,0.3,2.6,0.9,3.3
		c0.3,0.4,0.6,0.6,0.9,0.7c0.3,0.1,1.2,0.3,2.7,0.7c1.9,0.4,2.8,1.5,2.8,3.2c0,1-0.5,1.9-1.5,2.5c-0.7,0.5-2,0.7-3.8,0.7h-2h-26.4
		h-1.9c-1.7,0-3-0.3-3.9-0.8c-0.9-0.5-1.3-1.3-1.3-2.4c0-1.7,0.9-2.8,2.8-3.2c1.5-0.4,2.4-0.6,2.7-0.7c0.3-0.1,0.6-0.3,0.8-0.7
		c0.6-0.7,0.9-1.8,0.9-3.3V22.1H553.4z M573.8,22.1v24.2c0,1.1-0.3,2.1-1,2.8c-0.6,0.7-1.5,1.1-2.5,1.1c-1,0-1.8-0.3-2.5-1
		c-0.6-0.6-1.1-1.5-1.3-2.7l-0.6-3.6c-0.6-3.7-1.7-6.8-3.4-9.5c-1.1-1.7-2.5-3-4.3-4.1v-7.1H573.8z"/>
	<path fill="#45B29A" d="M576.3,93.6v-8.3l28.8-18l-28.8-19.7V25.5l51.2,35.2v1.1L576.3,93.6z"/>
</g>
</svg>
